<mxfile host="app.diagrams.net" modified="2020-09-27T19:08:10.596Z" agent="5.0 (Windows NT 10.0; Win64; x64) AppleWebKit/537.36 (KHTML, like Gecko) Chrome/85.0.4183.102 Safari/537.36 OPR/71.0.3770.175" etag="9JMDJ6-MwxGbNmtTB7Q7" version="13.7.5" type="github">
  <diagram name="Page-1" id="b33cb84f-bf7a-9ccf-f142-242d16432e5d">
    <mxGraphModel dx="2302" dy="1273" grid="1" gridSize="10" guides="1" tooltips="1" connect="1" arrows="1" fold="1" page="1" pageScale="1.5" pageWidth="1169" pageHeight="826" background="#ffffff" math="0" shadow="0">
      <root>
        <mxCell id="0" style=";html=1;" />
        <mxCell id="1" style=";html=1;" parent="0" />
        <mxCell id="oMZm9eGmKverWEsfN-3r-1" value="" style="ellipse;whiteSpace=wrap;html=1;aspect=fixed;" vertex="1" parent="1">
          <mxGeometry x="40" y="330" width="30" height="30" as="geometry" />
        </mxCell>
        <mxCell id="oMZm9eGmKverWEsfN-3r-11" value="" style="endArrow=classic;html=1;" edge="1" parent="1">
          <mxGeometry width="50" height="50" relative="1" as="geometry">
            <mxPoint x="70" y="350" as="sourcePoint" />
            <mxPoint x="210" y="350" as="targetPoint" />
          </mxGeometry>
        </mxCell>
        <mxCell id="oMZm9eGmKverWEsfN-3r-13" value="Ввод номера телефона" style="text;html=1;strokeColor=none;fillColor=none;align=center;verticalAlign=middle;whiteSpace=wrap;rounded=0;fontSize=31;" vertex="1" parent="1">
          <mxGeometry x="120" y="280" width="40" height="20" as="geometry" />
        </mxCell>
        <mxCell id="oMZm9eGmKverWEsfN-3r-56" style="edgeStyle=orthogonalEdgeStyle;rounded=0;orthogonalLoop=1;jettySize=auto;html=1;exitX=0.5;exitY=1;exitDx=0;exitDy=0;entryX=0;entryY=0.5;entryDx=0;entryDy=0;fontSize=28;" edge="1" parent="1" source="oMZm9eGmKverWEsfN-3r-18" target="oMZm9eGmKverWEsfN-3r-53">
          <mxGeometry relative="1" as="geometry" />
        </mxCell>
        <mxCell id="oMZm9eGmKverWEsfN-3r-18" value="" style="ellipse;whiteSpace=wrap;html=1;aspect=fixed;fontSize=31;" vertex="1" parent="1">
          <mxGeometry x="210" y="290" width="120" height="120" as="geometry" />
        </mxCell>
        <mxCell id="oMZm9eGmKverWEsfN-3r-19" value="Login Page" style="text;html=1;strokeColor=none;fillColor=none;align=center;verticalAlign=middle;whiteSpace=wrap;rounded=0;fontSize=31;" vertex="1" parent="1">
          <mxGeometry x="250" y="340" width="40" height="20" as="geometry" />
        </mxCell>
        <mxCell id="oMZm9eGmKverWEsfN-3r-22" value="" style="endArrow=classic;html=1;fontSize=31;" edge="1" parent="1">
          <mxGeometry width="50" height="50" relative="1" as="geometry">
            <mxPoint x="330" y="349.17" as="sourcePoint" />
            <mxPoint x="460" y="349" as="targetPoint" />
          </mxGeometry>
        </mxCell>
        <mxCell id="oMZm9eGmKverWEsfN-3r-23" value="" style="ellipse;whiteSpace=wrap;html=1;aspect=fixed;fontSize=31;" vertex="1" parent="1">
          <mxGeometry x="460" y="290" width="120" height="120" as="geometry" />
        </mxCell>
        <mxCell id="oMZm9eGmKverWEsfN-3r-24" value="Ввод пароля" style="text;html=1;strokeColor=none;fillColor=none;align=center;verticalAlign=middle;whiteSpace=wrap;rounded=0;fontSize=31;" vertex="1" parent="1">
          <mxGeometry x="360" y="270" width="60" height="70" as="geometry" />
        </mxCell>
        <mxCell id="oMZm9eGmKverWEsfN-3r-25" value="Home page" style="text;html=1;strokeColor=none;fillColor=none;align=center;verticalAlign=middle;whiteSpace=wrap;rounded=0;fontSize=31;" vertex="1" parent="1">
          <mxGeometry x="500" y="340" width="40" height="20" as="geometry" />
        </mxCell>
        <mxCell id="oMZm9eGmKverWEsfN-3r-26" value="" style="endArrow=classic;html=1;fontSize=31;" edge="1" parent="1">
          <mxGeometry width="50" height="50" relative="1" as="geometry">
            <mxPoint x="580" y="349.3400000000001" as="sourcePoint" />
            <mxPoint x="710" y="349.17" as="targetPoint" />
          </mxGeometry>
        </mxCell>
        <mxCell id="oMZm9eGmKverWEsfN-3r-28" value="Выбор комунальных услуг" style="text;html=1;strokeColor=none;fillColor=none;align=center;verticalAlign=middle;whiteSpace=wrap;rounded=0;fontSize=31;" vertex="1" parent="1">
          <mxGeometry x="630" y="280" width="40" height="20" as="geometry" />
        </mxCell>
        <mxCell id="oMZm9eGmKverWEsfN-3r-29" value="" style="ellipse;whiteSpace=wrap;html=1;aspect=fixed;fontSize=31;" vertex="1" parent="1">
          <mxGeometry x="710" y="290" width="120" height="120" as="geometry" />
        </mxCell>
        <mxCell id="oMZm9eGmKverWEsfN-3r-30" value="Стр. ввода данных" style="text;html=1;strokeColor=none;fillColor=none;align=center;verticalAlign=middle;whiteSpace=wrap;rounded=0;fontSize=28;" vertex="1" parent="1">
          <mxGeometry x="750" y="330" width="40" height="20" as="geometry" />
        </mxCell>
        <mxCell id="oMZm9eGmKverWEsfN-3r-31" value="" style="endArrow=classic;html=1;fontSize=31;exitX=1;exitY=0.5;exitDx=0;exitDy=0;" edge="1" parent="1" source="oMZm9eGmKverWEsfN-3r-29">
          <mxGeometry width="50" height="50" relative="1" as="geometry">
            <mxPoint x="940" y="350.17000000000013" as="sourcePoint" />
            <mxPoint x="1070" y="350.00000000000006" as="targetPoint" />
          </mxGeometry>
        </mxCell>
        <mxCell id="oMZm9eGmKverWEsfN-3r-33" value="Ввод актуальных данных / Подтверждение" style="text;html=1;strokeColor=none;fillColor=none;align=center;verticalAlign=middle;whiteSpace=wrap;rounded=0;fontSize=28;" vertex="1" parent="1">
          <mxGeometry x="920" y="270" width="40" height="20" as="geometry" />
        </mxCell>
        <mxCell id="oMZm9eGmKverWEsfN-3r-35" value="" style="ellipse;whiteSpace=wrap;html=1;aspect=fixed;fontSize=31;" vertex="1" parent="1">
          <mxGeometry x="1070" y="290" width="120" height="120" as="geometry" />
        </mxCell>
        <mxCell id="oMZm9eGmKverWEsfN-3r-36" value="Корзина" style="text;html=1;strokeColor=none;fillColor=none;align=center;verticalAlign=middle;whiteSpace=wrap;rounded=0;fontSize=28;" vertex="1" parent="1">
          <mxGeometry x="1110" y="335" width="40" height="20" as="geometry" />
        </mxCell>
        <mxCell id="oMZm9eGmKverWEsfN-3r-39" value="" style="endArrow=classic;html=1;fontSize=31;" edge="1" parent="1">
          <mxGeometry width="50" height="50" relative="1" as="geometry">
            <mxPoint x="1190" y="348.50000000000017" as="sourcePoint" />
            <mxPoint x="1320" y="348.3300000000001" as="targetPoint" />
          </mxGeometry>
        </mxCell>
        <mxCell id="oMZm9eGmKverWEsfN-3r-41" value="Выбор карточки и оплата. [при достаточном кол-ве средств]" style="text;html=1;strokeColor=none;fillColor=none;align=center;verticalAlign=middle;whiteSpace=wrap;rounded=0;fontSize=28;" vertex="1" parent="1">
          <mxGeometry x="1240" y="230" width="40" height="20" as="geometry" />
        </mxCell>
        <mxCell id="oMZm9eGmKverWEsfN-3r-63" style="edgeStyle=orthogonalEdgeStyle;rounded=0;orthogonalLoop=1;jettySize=auto;html=1;exitX=0.5;exitY=1;exitDx=0;exitDy=0;entryX=1;entryY=0.5;entryDx=0;entryDy=0;fontSize=28;" edge="1" parent="1" source="oMZm9eGmKverWEsfN-3r-42" target="oMZm9eGmKverWEsfN-3r-61">
          <mxGeometry relative="1" as="geometry" />
        </mxCell>
        <mxCell id="oMZm9eGmKverWEsfN-3r-42" value="" style="ellipse;whiteSpace=wrap;html=1;aspect=fixed;fontSize=31;" vertex="1" parent="1">
          <mxGeometry x="1310" y="280" width="140" height="140" as="geometry" />
        </mxCell>
        <mxCell id="oMZm9eGmKverWEsfN-3r-43" value="Страница оплаты" style="text;html=1;strokeColor=none;fillColor=none;align=center;verticalAlign=middle;whiteSpace=wrap;rounded=0;fontSize=28;" vertex="1" parent="1">
          <mxGeometry x="1360" y="340" width="40" height="20" as="geometry" />
        </mxCell>
        <mxCell id="oMZm9eGmKverWEsfN-3r-44" value="" style="endArrow=classic;html=1;fontSize=31;" edge="1" parent="1">
          <mxGeometry width="50" height="50" relative="1" as="geometry">
            <mxPoint x="1450" y="349.34000000000015" as="sourcePoint" />
            <mxPoint x="1580" y="349.1700000000001" as="targetPoint" />
          </mxGeometry>
        </mxCell>
        <mxCell id="oMZm9eGmKverWEsfN-3r-46" value="Подтверждение" style="text;html=1;strokeColor=none;fillColor=none;align=center;verticalAlign=middle;whiteSpace=wrap;rounded=0;fontSize=28;" vertex="1" parent="1">
          <mxGeometry x="1530" y="310" width="40" height="20" as="geometry" />
        </mxCell>
        <mxCell id="oMZm9eGmKverWEsfN-3r-48" value="" style="ellipse;whiteSpace=wrap;html=1;aspect=fixed;fontSize=28;labelBorderColor=#000000;labelBackgroundColor=#FFFFFF;fillColor=#000000;" vertex="1" parent="1">
          <mxGeometry x="1595" y="350" width="10" height="10" as="geometry" />
        </mxCell>
        <mxCell id="oMZm9eGmKverWEsfN-3r-49" value="" style="ellipse;whiteSpace=wrap;html=1;aspect=fixed;fontSize=28;" vertex="1" parent="1">
          <mxGeometry x="1580" y="330" width="40" height="40" as="geometry" />
        </mxCell>
        <mxCell id="oMZm9eGmKverWEsfN-3r-50" value="" style="ellipse;whiteSpace=wrap;html=1;labelBackgroundColor=#FFFFFF;fillColor=#000000;fontSize=28;" vertex="1" parent="1">
          <mxGeometry x="1590" y="340" width="20" height="20" as="geometry" />
        </mxCell>
        <mxCell id="oMZm9eGmKverWEsfN-3r-67" style="edgeStyle=orthogonalEdgeStyle;rounded=0;orthogonalLoop=1;jettySize=auto;html=1;exitX=1;exitY=0.5;exitDx=0;exitDy=0;entryX=0;entryY=0.5;entryDx=0;entryDy=0;fontSize=28;" edge="1" parent="1" source="oMZm9eGmKverWEsfN-3r-53" target="oMZm9eGmKverWEsfN-3r-65">
          <mxGeometry relative="1" as="geometry" />
        </mxCell>
        <mxCell id="oMZm9eGmKverWEsfN-3r-53" value="" style="ellipse;whiteSpace=wrap;html=1;aspect=fixed;labelBackgroundColor=#FFFFFF;fontSize=28;fillColor=none;" vertex="1" parent="1">
          <mxGeometry x="520" y="720" width="150" height="150" as="geometry" />
        </mxCell>
        <mxCell id="oMZm9eGmKverWEsfN-3r-54" value="Отменено системой" style="text;html=1;strokeColor=none;fillColor=none;align=center;verticalAlign=middle;whiteSpace=wrap;rounded=0;labelBackgroundColor=#FFFFFF;fontSize=28;" vertex="1" parent="1">
          <mxGeometry x="575" y="785" width="40" height="20" as="geometry" />
        </mxCell>
        <mxCell id="oMZm9eGmKverWEsfN-3r-69" style="edgeStyle=orthogonalEdgeStyle;rounded=0;orthogonalLoop=1;jettySize=auto;html=1;entryX=1;entryY=0.5;entryDx=0;entryDy=0;fontSize=28;" edge="1" parent="1" source="oMZm9eGmKverWEsfN-3r-61" target="oMZm9eGmKverWEsfN-3r-65">
          <mxGeometry relative="1" as="geometry" />
        </mxCell>
        <mxCell id="oMZm9eGmKverWEsfN-3r-61" value="" style="ellipse;whiteSpace=wrap;html=1;aspect=fixed;labelBackgroundColor=#FFFFFF;fontSize=28;fillColor=none;" vertex="1" parent="1">
          <mxGeometry x="1150" y="720" width="150" height="150" as="geometry" />
        </mxCell>
        <mxCell id="oMZm9eGmKverWEsfN-3r-62" value="Отмена юзером" style="text;html=1;strokeColor=none;fillColor=none;align=center;verticalAlign=middle;whiteSpace=wrap;rounded=0;labelBackgroundColor=#FFFFFF;fontSize=28;" vertex="1" parent="1">
          <mxGeometry x="1205" y="780" width="40" height="20" as="geometry" />
        </mxCell>
        <mxCell id="oMZm9eGmKverWEsfN-3r-65" value="" style="ellipse;whiteSpace=wrap;html=1;aspect=fixed;fontSize=28;" vertex="1" parent="1">
          <mxGeometry x="877" y="775" width="40" height="40" as="geometry" />
        </mxCell>
        <mxCell id="oMZm9eGmKverWEsfN-3r-66" value="" style="ellipse;whiteSpace=wrap;html=1;labelBackgroundColor=#FFFFFF;fillColor=#000000;fontSize=28;" vertex="1" parent="1">
          <mxGeometry x="887" y="785" width="20" height="20" as="geometry" />
        </mxCell>
        <mxCell id="oMZm9eGmKverWEsfN-3r-70" value="Неверные данные" style="text;html=1;strokeColor=none;fillColor=none;align=center;verticalAlign=middle;whiteSpace=wrap;rounded=0;labelBackgroundColor=#FFFFFF;fontSize=28;" vertex="1" parent="1">
          <mxGeometry x="180" y="600" width="40" height="20" as="geometry" />
        </mxCell>
        <mxCell id="oMZm9eGmKverWEsfN-3r-71" value="Отмена оплаты [Сохранение данных]" style="text;html=1;strokeColor=none;fillColor=none;align=center;verticalAlign=middle;whiteSpace=wrap;rounded=0;labelBackgroundColor=#FFFFFF;fontSize=28;" vertex="1" parent="1">
          <mxGeometry x="1450" y="610" width="40" height="20" as="geometry" />
        </mxCell>
      </root>
    </mxGraphModel>
  </diagram>
</mxfile>
